<?xml version="1.0" encoding="utf-8"?>
<svg version="1.1" xmlns:xlink="http://www.w3.org/1999/xlink" width="140px" height="140px" xmlns="http://www.w3.org/2000/svg">
  <g transform="matrix(1 0 0 1 -770 -400 )">
    <path d="M 114.93489583333333 79.93489583333334  C 116.08940972222223 78.78038194444444  116.66666666666667 77.41319444444444  116 75.83333333333334  L 116 64.16666666666667  C 116.66666666666667 62.58680555555555  116.08940972222223 61.21961805555555  114.93489583333333 60.06510416666667  C 113.78038194444446 58.91059027777778  112.41319444444446 58.33333333333333  110.83333333333333 59  L 81 59  L 81 29.16666666666667  C 81.66666666666667 27.586805555555546  81.08940972222223 26.219618055555546  79.93489583333333 25.06510416666667  C 78.78038194444446 23.910590277777764  77.41319444444446 23.33333333333333  75.83333333333333 24  L 64.16666666666666 24  C 62.586805555555564 23.33333333333333  61.219618055555564 23.910590277777764  60.065104166666664 25.06510416666667  C 58.91059027777778 26.219618055555546  58.333333333333336 27.586805555555546  59 29.16666666666667  L 59 59  L 29.166666666666668 59  C 27.586805555555557 58.33333333333333  26.219618055555557 58.91059027777778  25.065104166666668 60.06510416666667  C 23.910590277777782 61.21961805555555  23.333333333333332 62.58680555555555  24 64.16666666666667  L 24 75.83333333333334  C 23.333333333333332 77.41319444444444  23.910590277777782 78.78038194444444  25.065104166666668 79.93489583333334  C 26.219618055555557 81.08940972222221  27.586805555555557 81.66666666666666  29.166666666666668 81  L 59 81  L 59 110.83333333333333  C 58.333333333333336 112.41319444444444  58.91059027777778 113.78038194444444  60.065104166666664 114.93489583333333  C 61.219618055555564 116.08940972222223  62.586805555555564 116.66666666666667  64.16666666666666 116  L 75.83333333333333 116  C 77.41319444444446 116.66666666666667  78.78038194444446 116.08940972222223  79.93489583333333 114.93489583333333  C 81.08940972222223 113.78038194444444  81.66666666666667 112.41319444444444  81 110.83333333333333  L 81 81  L 110.83333333333333 81  C 112.41319444444446 81.66666666666666  113.78038194444446 81.08940972222221  114.93489583333333 79.93489583333334  Z M 132.29817708333331 7.701822916666671  C 137.43272569444443 12.836371527777766  140 19.019097222222204  140 26.25  L 140 113.75  C 140 120.98090277777777  137.43272569444443 127.16362847222223  132.29817708333331 132.29817708333331  C 127.16362847222223 137.43272569444443  120.9809027777778 140  113.75 140  L 26.25 140  C 19.01909722222222 140  12.836371527777779 137.43272569444443  7.701822916666667 132.29817708333331  C 2.5672743055555554 127.16362847222223  0 120.98090277777777  0 113.75  L 0 26.25  C 0 19.019097222222204  2.5672743055555554 12.836371527777766  7.701822916666667 7.701822916666671  C 12.836371527777779 2.567274305555547  19.01909722222222 0  26.25 0  L 113.75 0  C 120.9809027777778 0  127.16362847222223 2.567274305555547  132.29817708333331 7.701822916666671  Z " fill-rule="nonzero" fill="#f8f4f4" stroke="none" transform="matrix(1 0 0 1 770 400 )" />
  </g>
</svg>